<?xml version="1.0" encoding="utf-8"?>
<!-- Generator: Adobe Illustrator 19.0.0, SVG Export Plug-In . SVG Version: 6.00 Build 0)  -->
<svg version="1.1" id="Layer_1" xmlns="http://www.w3.org/2000/svg" xmlns:xlink="http://www.w3.org/1999/xlink" x="0px" y="0px"
	 viewBox="-345.5 -93.4 605.6 605.6" style="enable-background:new -345.5 -93.4 605.6 605.6;" xml:space="preserve">
<style type="text/css">
	.st0{fill:#FFFFFF;}
	.st1{fill:#FF6A00;}
	.st2{fill:url(#SVGID_1_);}
</style>
<g>
	<path class="st0" d="M-42.7,499c-159.7,0-289.6-129.8-289.6-289.6S-202.4-80.2-42.7-80.2S246.9,49.7,246.9,209.4S117,499-42.7,499z
		"/>
	<path class="st1" d="M-42.7-67c152.4,0,276.4,124,276.4,276.4s-124,276.4-276.4,276.4s-276.4-124-276.4-276.4S-195.1-67-42.7-67
		 M-42.7-93.4c-167.1,0-302.8,135.7-302.8,302.8s135.7,302.8,302.8,302.8s302.8-135.7,302.8-302.8S124.7-93.4-42.7-93.4L-42.7-93.4z
		"/>
</g>
<g>
	<g>
		<polygon class="st1" points="79.2,294.4 16.5,294.4 16.5,147 79.2,84.5 		"/>
	</g>
	
		<linearGradient id="SVGID_1_" gradientUnits="userSpaceOnUse" x1="-148.3036" y1="297.5906" x2="-138.2856" y2="307.6089" gradientTransform="matrix(1 0 0 -1 0 504)">
		<stop  offset="0" style="stop-color:#FF6A00"/>
		<stop  offset="1" style="stop-color:#8E0000"/>
	</linearGradient>
	<polygon class="st2" points="-101.9,294.4 -164.3,294.4 -164.3,88.1 -101.9,150.8 	"/>
	<g>
		<polygon class="st1" points="2.1,250.4 -42.1,294.7 -164.3,172.5 -164.3,84.5 		"/>
	</g>
</g>
</svg>
