<svg xmlns="http://www.w3.org/2000/svg" viewBox="0 0 407 197"><path d="M352.5 31.7c10.9.1 20.4 2.5 28.5 7.2 8.1 4.7 14.7 11.5 19 19.8 4.5 8.5 6.9 18.1 7 29.4-.1 10.9-2.3 20.6-6.9 29.1-4.3 8.3-10.9 15.1-19 19.8-8.1 4.9-17.8 7.2-28.6 7.4v-26.8c4.8 0 9.4-1.6 13.2-4.5 3.6-3 6.5-6.8 8.4-11 1.9-4.4 2.9-9.2 3-14 0-4.9-1-9.8-3-14.2-1.8-4.4-4.7-8.2-8.4-11.1-3.8-2.9-8.4-4.4-13.2-4.5V31.7zm0 112.6c-10.9-.1-20.5-2.5-28.6-7.4-8.1-4.7-14.7-11.5-19-19.8-4.5-8.4-6.8-18.1-6.9-29.1.1-11.1 2.4-20.9 7-29.4 4.4-8.2 10.9-15.1 19-19.8 8.1-4.9 17.7-7.2 28.6-7.2v26.7c-4.8 0-9.4 1.6-13.2 4.5-3.7 3-6.6 6.8-8.5 11.1-3.9 9-3.9 19.2 0 28.2 1.9 4.3 4.8 8.1 8.5 11 3.8 2.9 8.4 4.5 13.2 4.5v26.6l-.1.1zm-70.2-86.5c-1.4-1.1-2.9-2-4.5-2.9-2.6-1.4-5.4-2.2-8.4-2.3-2.5 0-4.9.9-6.8 2.6-1.9 1.6-3 3.9-3 6.4 0 2.4 1.2 4.7 3.1 6.2 2.4 1.8 5.1 3.3 7.9 4.3 3.4 1.3 6.6 2.6 10.4 4.1 3.7 1.5 7.2 3.5 10.4 5.9 3.3 2.5 6 5.8 7.8 9.5 2.1 4 3 9 3.3 14.9.1 7.1-1.9 14.1-5.7 20.2-3.6 5.5-8.6 10-14.6 12.8-6.3 3.1-13.2 4.7-20.1 4.6-7 0-13.9-1.6-20.1-4.6-6.3-3-11.9-7.4-16.3-12.8l15.5-15.8c2.3 2.3 4.9 4.4 7.7 6.1 3.6 2.4 7.8 3.7 12.1 3.8 3.1.1 6-1 8.3-3.1 2.3-2.2 3.5-5.2 3.5-8.3.1-2.7-1-5.4-3-7.2-2.2-2-4.8-3.6-7.7-4.6-3-1.3-6.5-2.7-10-4-3.5-1.4-6.9-3.3-10-5.5-3.2-2.3-5.8-5.2-7.7-8.7-2.1-3.6-3-8.2-3-13.8-.1-6.1 1.3-12.2 4.2-17.6 2.7-5 6.7-9.2 11.5-12.1 5.2-3 11.2-4.5 17.2-4.5 3.9.1 7.8.5 11.6 1.2 4.1.7 8 1.9 11.8 3.6 3.5 1.5 6.7 3.5 9.5 5.9l-14.9 15.7zM125.4 35.2v57.2c-.1 4.1.3 8.3 1 12.3.6 3.7 2.2 7.2 4.8 10.1 2.4 2.7 6.2 4 11.2 4.1 4.9-.1 8.6-1.4 11.1-4.1 2.5-2.9 4.1-6.3 4.8-10.1.8-4.1 1.1-8.2 1-12.3V65.6l29.6-30.1v61.9c0 15.4-4 27.2-11.6 35-7.8 8.1-19.4 12-34.8 12-15.5 0-27.1-4-34.8-12-7.8-7.8-11.8-19.6-11.8-35v-32l29.5-30.2zm-77 0c7.9.4 15.7 2 23.1 4.7 8 3.1 14.7 8.8 19.2 16.1 4.5 7.2 6.8 17.2 6.9 29.4-.1 17.3-4.5 30-13.3 38.7-8.4 8.2-20.4 12.3-35.9 12.6v-27c1.5-.2 3.1-.6 4.5-1.1 4-1.1 7.4-3.8 9.4-7.5 2.2-3.7 3.4-9 3.4-15.9 0-7-1.3-12.1-3.7-15.5-2.5-3.5-6.1-5.9-10.2-6.9-1-.2-2.2-.5-3.4-.7V35.2zM0 197V35.1h42.3c2.1-.1 4.1 0 6.2.1v27c-3.9-.7-7.8-1-11.8-.8h-5.6v49h6.4c3.7.1 7.3-.1 10.9-.7v27c-.6.1-1.2.1-1.9.1H31.1v-.1 28.6M223.5 0v129.4l-11.1 11.5H194V30.1L223.5 0z"/></svg>